<?xml version="1.0" encoding="utf-8"?>
<!-- Generator: Adobe Illustrator 21.1.0, SVG Export Plug-In . SVG Version: 6.00 Build 0)  -->
<svg version="1.1" id="Calque_1" xmlns="http://www.w3.org/2000/svg" xmlns:xlink="http://www.w3.org/1999/xlink" x="0px" y="0px"
	 viewBox="0 0 276 174" style="enable-background:new 0 0 276 174;" xml:space="preserve">
<style type="text/css">
	.st0{fill:currentcolor;}
</style>
<g>
	<path class="st0" d="M44.6,157.1L44.6,157.1L44.6,157.1L44.6,157.1c-11.4,0-21.2-9.3-20.7-21.2c0.8-15.8,14.8-18.1,19.6-25.2
		c0.2-0.3,0.6-0.6,1.1-0.6c0.4,0,0.8,0.2,1.1,0.6l0,0c4.8,7.1,18.8,9.4,19.6,25.2C65.8,147.8,56,157.1,44.6,157.1 M83.2,135.3
		c0-21.4-17.3-38.7-38.7-38.7S5.8,113.9,5.8,135.3S23.1,174,44.5,174S83.2,156.7,83.2,135.3"/>
	<path class="st0" d="M44.5,86.6c0.7,0,1.3-0.4,1.6-1c2.2-4,7.8-7.5,13.6-11.3c3.1-2,6.1-4.1,9-6.2C81.1,59.2,89,45.4,89,29.7
		c0-0.5,0-1,0-1.5v-0.6l-0.6,0.1c-9.7,1.1-18.7,5.1-26.1,11.5c0-0.8,0.1-1.5,0.1-2.3C62.4,22.4,56,9,44.9,0.1L44.5,0l-0.4,0.3
		C33,9.1,26.6,22.5,26.6,37c0,0.7,0,1.5,0.1,2.3c-7.4-6.5-16.4-10.5-26.1-11.5L0,27.7v0.6c0,0.5,0,1,0,1.5
		c0,15.6,7.9,29.5,20.3,38.4c2.9,2.1,6,4.2,9,6.2c5.9,3.8,11.4,7.4,13.6,11.3C43.3,86.2,43.9,86.6,44.5,86.6"/>
	<path class="st0" d="M112.8,67.2h12.1l2.2,5.9h9.4l-12.8-33.9h-9.6l-13,33.9h9.3L112.8,67.2z M118.8,49.7L118.8,49.7l3.7,10.8h-7.3
		L118.8,49.7z M136.6,65.1c-1.4-2.5-2.2-5.5-2.2-8.8c0-10.6,8.7-17.9,17.9-17.9c2.8,0,5.4,0.6,8,1.7v10.6c-1.8-2.4-4.7-3.7-7.7-3.7
		c-5.2,0-9,4-9,9.4c0,5.5,3.9,9.2,9.2,9.2c2.8,0,5.7-1.3,7.6-3.6v10.6c-4.5,1.4-5.7,1.6-7.8,1.6C146.1,74,139.7,70.5,136.6,65.1z
		 M170.3,46.7H163v-7.5h23.4v7.5h-7.3v26.4h-8.8L170.3,46.7L170.3,46.7z M197.8,73.1H189V39.2h8.8V73.1z M219.5,74.2
		c9.5,0,18.5-6.8,18.5-18.7c0-10.4-9.1-17.4-18.7-17.4c-3,0-7.1,0.6-11.3,3.5c-1.8,1.3-7.5,5.4-7.5,14.3
		C200.5,65.2,207.2,74.2,219.5,74.2z M219.2,46.7c5.2,0,9.6,4.2,9.6,8.9c0,5.7-4.2,10.1-9.6,10.1c-5.3,0-9.6-4.3-9.6-10.1
		C209.6,50.7,214.2,46.7,219.2,46.7z M249.5,73.1h-8.8V39.2h8.8L265.6,60h0.1V39.2h8.8v33.9h-8.8l-16.1-20.8h-0.1V73.1z
		 M103.3,106.2c-1.4-2.4-2.1-5.3-2.1-8.6c0-10.2,8.4-17.3,17.3-17.3c2.7,0,5.2,0.6,7.8,1.7v10.2c-1.7-2.3-4.5-3.6-7.5-3.6
		c-5,0-8.7,3.8-8.7,9.1c0,5.3,3.7,8.9,8.9,8.9c2.7,0,5.5-1.3,7.4-3.5v10.2c-4.4,1.3-5.5,1.5-7.5,1.5
		C112.5,114.9,106.3,111.5,103.3,106.2z M146.2,80.2c-2.9,0-6.9,0.6-10.9,3.4c-1.7,1.2-7.2,5.3-7.2,13.9c0,9,6.5,17.7,18.4,17.7
		c9.2,0,17.9-6.6,17.9-18.1C164.3,87,155.5,80.2,146.2,80.2z M146.2,106.9c-5.1,0-9.3-4.2-9.3-9.8c0-4.7,4.4-8.7,9.2-8.7
		c5,0,9.3,4,9.3,8.7C155.5,102.6,151.4,106.9,146.2,106.9z M190.8,81.2h8.5V114h-8.5l-15.6-20.1h-0.1V114h-8.5V81.2h8.5l15.6,20h0.1
		V81.2z M208.9,114V88.5h-7v-7.2h22.6v7.2h-7V114H208.9z M227.1,114h8.5v-12.6h0.1l8,12.6h10.6L244,100.6c4.4-0.8,7.2-4.5,7.2-9.3
		c0-6.8-4.7-10.1-11.3-10.1H227V114H227.1z M235.6,87.8h0.7c4.2,0,6,1.3,6,4.1c0,2.8-1.8,4.1-6,4.1h-0.7V87.8z M264.4,88.5V94h9.6
		v7.2h-9.6v5.7h10.1v7.2h-18.7V81.2h18.7v7.2h-10.1V88.5z M133.4,122.2l-10.5,27.3h-10.8v-27.3H103v35h16.9h3h6.6l2.4-6.1h12.5
		l2.3,6.1h9.7l-13.2-35H133.4z M134.5,144.1l3.8-11.1h0.1l3.7,11.1H134.5z M185.1,143.4h-10v13.7H166v-35h20.1v7.7h-11v5.8h10V143.4
		z M196.3,122.2l-13.4,35h9.6l2.4-6.1h12.5l2.3,6.1h9.7l-13.2-35H196.3z M197.5,144.1l3.8-11.1h0.1l3.7,11.1H197.5z M221.2,122.2
		h9.1v35h-9.1V122.2z M275.9,157.1h-9.1l-2.6-20.1h-0.1l-8.4,20.1h-3.6l-8-20.1H244l-2.9,20.1h-9l5.9-35h8.9l7.1,18.7l7.5-18.7h9
		L275.9,157.1z"/>
</g>
</svg>
