<svg xmlns="http://www.w3.org/2000/svg" xmlns:xlink="http://www.w3.org/1999/xlink" width="150px" height="150px" viewBox="0 0 108 24" version="1.1"><title>Group</title><g id="Symbols" stroke="none" stroke-width="1" fill="none" fill-rule="evenodd"><g id="Group" fill="currentColor"><path d="M42.276,0.93104 L42.276,12.99744 L44.2712,12.99744 C46.2648,12.99744 47.7936,12.49904 48.8248,11.46864 C49.8552,10.43744 50.3864,8.94224 50.3864,6.94704 C50.3864,5.11904 49.8216,3.62304 48.7584,2.55904 C47.6952,1.49584 46.1312,0.93104 44.2712,0.93104 L42.276,0.93104 Z M36.2256,0.33184 L44.8016,0.33184 C46.2984,0.33184 47.7272,0.53184 48.9248,0.93104 C50.3536,1.42944 51.5168,2.12784 52.348,3.09184 C53.312,4.15504 53.8112,5.48464 53.8112,6.84704 C53.8112,9.07504 52.8136,10.90304 50.952,12.09984 C49.456,13.06384 47.3624,13.59504 44.9352,13.59504 L42.276,13.59504 L42.276,20.77504 C42.276,21.67264 42.4088,22.20544 42.8088,22.50384 C43.1072,22.80304 43.6392,23.00224 44.5368,23.13584 C44.9688,23.23504 45.5,23.23504 46.3976,23.33504 L46.3976,23.66784 L36.2256,23.66784 L36.2256,23.33504 C36.924,23.23504 37.356,23.23504 37.7224,23.13584 C38.3536,23.00224 38.6856,22.80304 38.9192,22.43744 C39.0848,22.13904 39.1512,21.73984 39.1512,20.97504 L39.1512,3.02544 C39.1512,2.32704 39.0848,1.86144 38.9192,1.56224 C38.6856,1.19664 38.3536,0.99744 37.688,0.86464 C37.3896,0.76464 36.924,0.76464 36.2256,0.66464 L36.2256,0.33184 Z" id="Fill-1"></path><path d="M63.06496,3.02512 L63.06496,14.95872 C63.06496,17.21792 63.49776,19.08032 64.39456,20.40992 C65.45856,22.00592 67.08736,22.83712 69.24816,22.83712 C71.47536,22.83712 73.36976,22.03872 74.60096,20.57632 C75.76336,19.21312 76.36176,17.31872 76.36176,14.95872 L76.36176,3.09152 C76.36176,2.26032 76.22896,1.79472 75.86336,1.42912 C75.56416,1.13072 75.06496,0.93072 74.23456,0.83072 C73.80176,0.73152 73.27056,0.69792 72.44016,0.66512 L72.44016,0.33232 L80.35056,0.33232 L80.35056,0.66512 C79.55376,0.69792 79.12096,0.76432 78.72256,0.86432 C78.05696,0.99712 77.69136,1.19632 77.42496,1.56272 C77.19296,1.86112 77.09376,2.39392 77.09376,3.09152 L77.09376,15.45712 C77.09376,17.98272 76.29536,20.14352 74.83296,21.64032 C73.33696,23.20192 71.17616,24.00032 68.74976,24.00032 C66.05696,24.00032 63.79696,23.23552 62.30016,21.77232 C60.73856,20.27712 59.94096,18.11632 59.94096,15.35712 L59.94096,3.02512 C59.94096,2.32672 59.87456,1.86112 59.70816,1.56272 C59.47536,1.19632 59.14256,0.99712 58.47776,0.86432 C58.17856,0.76432 57.71376,0.76432 57.01536,0.66512 L57.01536,0.33232 L65.99056,0.33232 L65.99056,0.66512 C65.29216,0.76432 64.86016,0.76432 64.49536,0.86432 C63.86336,0.99712 63.53056,1.19632 63.29776,1.56272 C63.13136,1.86112 63.06496,2.26032 63.06496,3.02512" id="Fill-3"></path><path d="M91.70616,0.46512 C90.37656,0.46512 89.24696,0.89712 88.44856,1.69552 C87.65096,2.52672 87.21896,3.65632 87.21896,4.95312 C87.21896,5.88432 87.48536,6.68112 88.01736,7.37872 C88.51576,7.94432 89.14696,8.44352 90.11096,8.97472 C90.64296,9.24112 91.14136,9.47312 92.50456,10.03792 C93.80056,10.60352 94.33256,10.83712 94.86456,11.10192 C95.76216,11.53472 96.46056,12.00032 96.99176,12.49952 C97.69016,13.13072 98.15576,13.79472 98.52136,14.59312 C98.81976,15.35712 98.98696,16.18832 98.98696,17.11952 C98.98696,19.11392 98.12136,20.94272 96.55976,22.17152 C95.09736,23.36832 93.16856,24.00032 91.14136,24.00032 C89.84456,24.00032 88.64856,23.80112 87.48536,23.50112 C86.15576,23.10272 84.99176,22.53712 84.19416,21.83952 L83.99496,16.08832 L84.32696,16.08832 C84.69336,18.08352 85.42376,19.81152 86.45416,21.10832 C87.75096,22.67072 89.37976,23.50112 91.20776,23.50112 C92.67016,23.50112 93.90056,23.03632 94.79896,22.20512 C95.72856,21.30752 96.22696,20.11152 96.22696,18.68112 C96.22696,17.58432 95.96136,16.65312 95.43016,15.88912 C94.93096,15.12432 94.23256,14.52672 93.20296,13.96112 C92.57176,13.66192 92.03896,13.36272 90.47736,12.73152 C89.24696,12.23312 88.78136,12.03312 88.28216,11.80032 C87.48536,11.40192 86.81976,10.96992 86.32136,10.53712 C85.65656,10.00592 85.19176,9.37392 84.89176,8.67632 C84.62696,7.97792 84.46056,7.24592 84.46056,6.34912 C84.46056,4.48752 85.29096,2.79232 86.75336,1.62912 C88.08296,0.56512 89.84456,0.00032 91.83896,0.00032 C93.93336,0.00032 95.89416,0.63152 97.92296,1.92752 L97.92296,6.78192 L97.62296,6.78192 C97.32456,5.05312 96.72536,3.55712 95.79576,2.46032 C94.73176,1.16352 93.30216,0.46512 91.70616,0.46512" id="Fill-6"></path><path d="M103.41232,21.70696 C103.41232,21.07496 103.67872,20.50936 104.07712,20.07736 C104.50992,19.67816 105.07472,19.41336 105.70592,19.41336 C106.33792,19.41336 106.90272,19.67816 107.33472,20.07736 C107.73392,20.50936 108.00032,21.07496 108.00032,21.70696 C108.00032,22.33816 107.73392,22.90376 107.33472,23.33496 C106.90272,23.73496 106.33792,23.99976 105.70592,23.99976 C105.07472,23.99976 104.50992,23.73496 104.07712,23.33496 C103.67872,22.90376 103.41232,22.33816 103.41232,21.70696" id="Fill-9"></path><g id="Group-2"><path d="M3.4,12 C3.4,6.3808 7.0808,1.624 12.1616,0 L12,0 C5.3728,0 0,5.3728 0,12 C0,18.6272 5.3728,24 12,24 L12.1616,24 C7.0808,22.376 3.4,17.6192 3.4,12" id="Fill-12"></path><path d="M20,0 L19.8384,0 C24.9192,1.624 28.6,6.3808 28.6,12 C28.6,17.6192 24.9192,22.376 19.8384,24 L20,24 C26.6272,24 32,18.6272 32,12 C32,5.3728 26.6272,0 20,0" id="Fill-14"></path></g></g></g></svg>